<svg width="25" height="24" viewBox="0 0 25 24" fill="none" xmlns="http://www.w3.org/2000/svg">
<g id="icon">
<g id="Union">
<path fill-rule="evenodd" clip-rule="evenodd" d="M23.2151 5.92313C23.0181 5.55471 22.736 5.24769 22.3963 5.03201C22.0565 4.81633 21.6708 4.69936 21.2768 4.69252H7.64211L6.98079 1.91132C6.91397 1.64284 6.7649 1.4067 6.55786 1.24134C6.35082 1.07597 6.098 0.991144 5.84058 1.00066H2.60017C2.29777 1.00066 2.00775 1.13031 1.79392 1.3611C1.58009 1.59189 1.45996 1.9049 1.45996 2.23128C1.45996 2.55766 1.58009 2.87067 1.79392 3.10146C2.00775 3.33224 2.29777 3.4619 2.60017 3.4619H4.97402L8.121 16.088C8.18781 16.3565 8.33688 16.5927 8.54392 16.758C8.75097 16.9234 9.00379 17.0082 9.2612 16.9987H18.5631C18.7736 16.998 18.9799 16.9344 19.159 16.8149C19.3381 16.6955 19.4831 16.5248 19.5778 16.3219L23.3177 8.249C23.4798 7.8823 23.5553 7.47798 23.5374 7.07214C23.5195 6.6663 23.4088 6.27156 23.2151 5.92313ZM17.8561 14.5375H10.1278L8.26922 7.15375H21.2768L17.8561 14.5375Z" fill="#111111"/>
<path d="M9.13996 22.9992C10.2003 22.9992 11.06 22.1038 11.06 20.9993C11.06 19.8948 10.2003 18.9994 9.13996 18.9994C8.07957 18.9994 7.21996 19.8948 7.21996 20.9993C7.21996 22.1038 8.07957 22.9992 9.13996 22.9992Z" fill="#111111"/>
<path d="M20.66 20.9993C20.66 22.1038 19.8003 22.9992 18.74 22.9992C17.6796 22.9992 16.82 22.1038 16.82 20.9993C16.82 19.8948 17.6796 18.9994 18.74 18.9994C19.8003 18.9994 20.66 19.8948 20.66 20.9993Z" fill="#111111"/>
</g>
</g>
</svg>
