<svg width="25" height="24" viewBox="0 0 25 24" fill="none" xmlns="http://www.w3.org/2000/svg">
<g id="icon">
<path id="Path" fill-rule="evenodd" clip-rule="evenodd" d="M17 3C20.0376 3 22.5 5.46243 22.5 8.5C22.5 10.2643 21.6693 11.8345 20.3777 12.841L12.5 20L4.55005 12.7837C4.37945 12.6461 4.21724 12.4986 4.06431 12.3419L4.02185 12.3027C3.08052 11.3142 2.5 9.97487 2.5 8.5C2.5 5.46243 4.96243 3 8 3C9.85997 3 11.5043 3.92326 12.4997 5.3365C13.4957 3.92326 15.14 3 17 3ZM17 5C15.9176 5 14.9209 5.49287 14.2618 6.31902L14.1345 6.48864L12.4992 8.80899L10.8646 6.48818C10.2113 5.56072 9.15448 5 8 5C6.067 5 4.5 6.567 4.5 8.5C4.5 9.33921 4.79447 10.1294 5.32093 10.7565L5.451 10.901L5.49536 10.9447C5.54422 10.9948 5.59455 11.0434 5.64626 11.0904L5.89428 11.3028L12.498 17.297L19.0326 11.3609L19.1484 11.2634C19.9966 10.6024 20.5 9.59476 20.5 8.5C20.5 6.567 18.933 5 17 5Z" fill="#111111"/>
</g>
</svg>
