<svg width="25" height="24" viewBox="0 0 25 24" fill="none" xmlns="http://www.w3.org/2000/svg">
<g id="icon">
<path id="Path" fill-rule="evenodd" clip-rule="evenodd" d="M12.5 13.002C14.8115 13.0514 20.3652 13.904 20.5 17C20.5 18.6569 19.1569 20 17.5 20H7.5C5.84315 20 4.5 18.6569 4.5 17C4.5 14.3991 9.7776 13.0602 12.5 13.002ZM12.5 15C9.92621 15 6.5 15.9993 6.50811 16.942L6.50773 16.9923C6.50347 17.5476 6.95241 18 7.5077 18H17.5C18.0523 18 18.5 17.5523 18.5 17C18.5 15.9993 15.1495 15 12.5 15ZM12.5 4C14.71 4 16.5 5.79 16.5 8C16.5 10.21 14.71 12 12.5 12C10.29 12 8.5 10.21 8.5 8C8.5 5.79 10.29 4 12.5 4ZM12.5 6C11.3946 6 10.5 6.89457 10.5 8C10.5 9.10543 11.3946 10 12.5 10C13.6054 10 14.5 9.10543 14.5 8C14.5 6.89457 13.6054 6 12.5 6Z" fill="#111111"/>
</g>
</svg>
